<?xml version="1.0" encoding="UTF-8" standalone="no"?>
<!DOCTYPE svg PUBLIC "-//W3C//DTD SVG 1.1//EN"
 "http://www.w3.org/Graphics/SVG/1.1/DTD/svg11.dtd">
<!-- Generated by graphviz version 9.0.0 (20230911.1827)
 -->
<!-- Title: AST Pages: 1 -->
<svg width="1268pt" height="748pt"
 viewBox="0.00 0.00 1268.00 747.50" xmlns="http://www.w3.org/2000/svg" xmlns:xlink="http://www.w3.org/1999/xlink">
<g id="graph0" class="graph" transform="scale(1 1) rotate(0) translate(4 743.5)">
<title>AST</title>
<polygon fill="white" stroke="none" points="-4,4 -4,-743.5 1264,-743.5 1264,4 -4,4"/>
<!-- 1268447657 -->
<g id="node1" class="node">
<title>1268447657</title>
<ellipse fill="none" stroke="black" cx="825" cy="-721.5" rx="37.53" ry="18"/>
<text text-anchor="middle" x="825" y="-716.45" font-family="Times,serif" font-size="14.00">add.spl</text>
</g>
<!-- 1789447862 -->
<g id="node2" class="node">
<title>1789447862</title>
<ellipse fill="#5383ec" stroke="black" cx="356" cy="-648.5" rx="28.83" ry="18"/>
<text text-anchor="middle" x="356" y="-643.45" font-family="Times,serif" font-size="14.00">class</text>
</g>
<!-- 1268447657&#45;&gt;1789447862 -->
<g id="edge1" class="edge">
<title>1268447657&#45;&gt;1789447862</title>
<path fill="none" stroke="black" d="M789.36,-715.11C703.34,-702.08 484.81,-669 395.23,-655.44"/>
<polygon fill="black" stroke="black" points="395.87,-652 385.46,-653.96 394.82,-658.92 395.87,-652"/>
</g>
<!-- 1227229563 -->
<g id="node35" class="node">
<title>1227229563</title>
<ellipse fill="none" stroke="black" cx="729" cy="-648.5" rx="27" ry="18"/>
<text text-anchor="middle" x="729" y="-643.45" font-family="Times,serif" font-size="14.00">=</text>
</g>
<!-- 1268447657&#45;&gt;1227229563 -->
<g id="edge34" class="edge">
<title>1268447657&#45;&gt;1227229563</title>
<path fill="none" stroke="black" d="M805.11,-705.79C790.83,-695.23 771.42,-680.87 755.78,-669.31"/>
<polygon fill="black" stroke="black" points="757.94,-666.55 747.82,-663.42 753.78,-672.18 757.94,-666.55"/>
</g>
<!-- 305623748 -->
<g id="node42" class="node">
<title>305623748</title>
<ellipse fill="none" stroke="black" cx="825" cy="-648.5" rx="27" ry="18"/>
<text text-anchor="middle" x="825" y="-643.45" font-family="Times,serif" font-size="14.00">=</text>
</g>
<!-- 1268447657&#45;&gt;305623748 -->
<g id="edge41" class="edge">
<title>1268447657&#45;&gt;305623748</title>
<path fill="none" stroke="black" d="M825,-703.31C825,-695.73 825,-686.6 825,-678.04"/>
<polygon fill="black" stroke="black" points="828.5,-678.04 825,-668.04 821.5,-678.04 828.5,-678.04"/>
</g>
<!-- 1617791695 -->
<g id="node49" class="node">
<title>1617791695</title>
<ellipse fill="none" stroke="black" cx="945" cy="-648.5" rx="27" ry="18"/>
<text text-anchor="middle" x="945" y="-643.45" font-family="Times,serif" font-size="14.00">=</text>
</g>
<!-- 1268447657&#45;&gt;1617791695 -->
<g id="edge48" class="edge">
<title>1268447657&#45;&gt;1617791695</title>
<path fill="none" stroke="black" d="M847.85,-706.98C867.14,-695.57 894.86,-679.16 915.76,-666.8"/>
<polygon fill="black" stroke="black" points="917.28,-669.97 924.11,-661.86 913.72,-663.94 917.28,-669.97"/>
</g>
<!-- 537548559 -->
<g id="node54" class="node">
<title>537548559</title>
<ellipse fill="#f1cd77" stroke="black" cx="1025" cy="-648.5" rx="27" ry="18"/>
<text text-anchor="middle" x="1025" y="-643.45" font-family="Times,serif" font-size="14.00">Call</text>
</g>
<!-- 1268447657&#45;&gt;537548559 -->
<g id="edge53" class="edge">
<title>1268447657&#45;&gt;537548559</title>
<path fill="none" stroke="black" d="M855.31,-710.36C886.83,-699.74 937.54,-682.41 981,-666.5 984.46,-665.23 988.06,-663.89 991.65,-662.53"/>
<polygon fill="black" stroke="black" points="992.72,-665.87 1000.81,-659.02 990.22,-659.33 992.72,-665.87"/>
</g>
<!-- 1143839598 -->
<g id="node3" class="node">
<title>1143839598</title>
<ellipse fill="none" stroke="black" cx="235" cy="-560" rx="27" ry="18"/>
<text text-anchor="middle" x="235" y="-554.95" font-family="Times,serif" font-size="14.00">Add</text>
</g>
<!-- 1789447862&#45;&gt;1143839598 -->
<g id="edge2" class="edge">
<title>1789447862&#45;&gt;1143839598</title>
<path fill="none" stroke="black" d="M334.74,-635.97C323.29,-629.49 309.07,-621.01 297,-612.5 283.83,-603.21 269.95,-591.85 258.68,-582.17"/>
<polygon fill="black" stroke="black" points="261.24,-579.75 251.4,-575.83 256.64,-585.03 261.24,-579.75"/>
<text text-anchor="middle" x="312" y="-599.2" font-family="Times,serif" font-size="14.00">name</text>
</g>
<!-- 250075633 -->
<g id="node4" class="node">
<title>250075633</title>
<ellipse fill="none" stroke="black" cx="313" cy="-560" rx="33.44" ry="18"/>
<text text-anchor="middle" x="313" y="-554.95" font-family="Times,serif" font-size="14.00">object</text>
</g>
<!-- 1789447862&#45;&gt;250075633 -->
<g id="edge3" class="edge">
<title>1789447862&#45;&gt;250075633</title>
<path fill="none" stroke="black" d="M347.71,-630.82C341.68,-618.69 333.39,-602.02 326.42,-588"/>
<polygon fill="black" stroke="black" points="329.67,-586.67 322.09,-579.28 323.4,-589.79 329.67,-586.67"/>
<text text-anchor="middle" x="353.62" y="-599.2" font-family="Times,serif" font-size="14.00">super</text>
</g>
<!-- 358699161 -->
<g id="node5" class="node">
<title>358699161</title>
<ellipse fill="none" stroke="black" cx="430" cy="-560" rx="65.17" ry="18"/>
<text text-anchor="middle" x="430" y="-554.95" font-family="Times,serif" font-size="14.00">ProgramBlock</text>
</g>
<!-- 1789447862&#45;&gt;358699161 -->
<g id="edge4" class="edge">
<title>1789447862&#45;&gt;358699161</title>
<path fill="none" stroke="black" d="M369.23,-632.04C380.04,-619.4 395.54,-601.28 408.19,-586.5"/>
<polygon fill="black" stroke="black" points="410.8,-588.83 414.64,-578.96 405.48,-584.28 410.8,-588.83"/>
<text text-anchor="middle" x="414.62" y="-599.2" font-family="Times,serif" font-size="14.00">Body</text>
</g>
<!-- 517938326 -->
<g id="node6" class="node">
<title>517938326</title>
<ellipse fill="#65db79" stroke="black" cx="175" cy="-471.5" rx="87.18" ry="18"/>
<text text-anchor="middle" x="175" y="-466.45" font-family="Times,serif" font-size="14.00">def __init__ (self, a)</text>
</g>
<!-- 358699161&#45;&gt;517938326 -->
<g id="edge5" class="edge">
<title>358699161&#45;&gt;517938326</title>
<path fill="none" stroke="black" d="M389.88,-545.39C346.68,-530.74 277.69,-507.33 229.58,-491.01"/>
<polygon fill="black" stroke="black" points="230.76,-487.72 220.17,-487.82 228.51,-494.35 230.76,-487.72"/>
</g>
<!-- 515132998 -->
<g id="node14" class="node">
<title>515132998</title>
<ellipse fill="#65db79" stroke="black" cx="376" cy="-471.5" rx="95.37" ry="18"/>
<text text-anchor="middle" x="376" y="-466.45" font-family="Times,serif" font-size="14.00">def __add__ (self, rhs)</text>
</g>
<!-- 358699161&#45;&gt;515132998 -->
<g id="edge13" class="edge">
<title>358699161&#45;&gt;515132998</title>
<path fill="none" stroke="black" d="M419.33,-541.91C411.76,-529.79 401.45,-513.27 392.79,-499.39"/>
<polygon fill="black" stroke="black" points="395.9,-497.76 387.63,-491.13 389.96,-501.47 395.9,-497.76"/>
</g>
<!-- 2111991224 -->
<g id="node25" class="node">
<title>2111991224</title>
<ellipse fill="#65db79" stroke="black" cx="564" cy="-471.5" rx="74.89" ry="18"/>
<text text-anchor="middle" x="564" y="-466.45" font-family="Times,serif" font-size="14.00">def __str__ (self)</text>
</g>
<!-- 358699161&#45;&gt;2111991224 -->
<g id="edge24" class="edge">
<title>358699161&#45;&gt;2111991224</title>
<path fill="none" stroke="black" d="M454.89,-542.93C475.82,-529.42 505.96,-509.96 529.27,-494.92"/>
<polygon fill="black" stroke="black" points="531.01,-497.96 537.52,-489.6 527.22,-492.08 531.01,-497.96"/>
</g>
<!-- 914424520 -->
<g id="node7" class="node">
<title>914424520</title>
<ellipse fill="none" stroke="black" cx="175" cy="-383" rx="65.17" ry="18"/>
<text text-anchor="middle" x="175" y="-377.95" font-family="Times,serif" font-size="14.00">ProgramBlock</text>
</g>
<!-- 517938326&#45;&gt;914424520 -->
<g id="edge6" class="edge">
<title>517938326&#45;&gt;914424520</title>
<path fill="none" stroke="black" d="M175,-453.41C175,-441.76 175,-426.05 175,-412.52"/>
<polygon fill="black" stroke="black" points="178.5,-412.86 175,-402.86 171.5,-412.86 178.5,-412.86"/>
<text text-anchor="middle" x="189.62" y="-422.2" font-family="Times,serif" font-size="14.00">Body</text>
</g>
<!-- 110718392 -->
<g id="node8" class="node">
<title>110718392</title>
<ellipse fill="none" stroke="black" cx="127" cy="-310" rx="27" ry="18"/>
<text text-anchor="middle" x="127" y="-304.95" font-family="Times,serif" font-size="14.00">=</text>
</g>
<!-- 914424520&#45;&gt;110718392 -->
<g id="edge7" class="edge">
<title>914424520&#45;&gt;110718392</title>
<path fill="none" stroke="black" d="M163.38,-364.81C157.53,-356.16 150.33,-345.51 143.89,-335.98"/>
<polygon fill="black" stroke="black" points="146.88,-334.15 138.38,-327.83 141.08,-338.07 146.88,-334.15"/>
</g>
<!-- 1865127310 -->
<g id="node13" class="node">
<title>1865127310</title>
<ellipse fill="#e4706f" stroke="black" cx="228" cy="-310" rx="55.96" ry="18"/>
<text text-anchor="middle" x="228" y="-304.95" font-family="Times,serif" font-size="14.00">ReturnNone</text>
</g>
<!-- 914424520&#45;&gt;1865127310 -->
<g id="edge12" class="edge">
<title>914424520&#45;&gt;1865127310</title>
<path fill="none" stroke="black" d="M187.56,-365.17C193.9,-356.69 201.72,-346.21 208.79,-336.73"/>
<polygon fill="black" stroke="black" points="211.45,-339.03 214.62,-328.92 205.84,-334.84 211.45,-339.03"/>
</g>
<!-- 2110121908 -->
<g id="node9" class="node">
<title>2110121908</title>
<ellipse fill="none" stroke="black" cx="86" cy="-237" rx="27" ry="18"/>
<text text-anchor="middle" x="86" y="-231.95" font-family="Times,serif" font-size="14.00">.</text>
</g>
<!-- 110718392&#45;&gt;2110121908 -->
<g id="edge8" class="edge">
<title>110718392&#45;&gt;2110121908</title>
<path fill="none" stroke="black" d="M117.7,-292.89C112.77,-284.36 106.6,-273.67 101.01,-263.99"/>
<polygon fill="black" stroke="black" points="104.06,-262.27 96.02,-255.36 97.99,-265.77 104.06,-262.27"/>
</g>
<!-- 1023487453 -->
<g id="node12" class="node">
<title>1023487453</title>
<ellipse fill="none" stroke="black" cx="158" cy="-237" rx="27" ry="18"/>
<text text-anchor="middle" x="158" y="-231.95" font-family="Times,serif" font-size="14.00">a</text>
</g>
<!-- 110718392&#45;&gt;1023487453 -->
<g id="edge11" class="edge">
<title>110718392&#45;&gt;1023487453</title>
<path fill="none" stroke="black" d="M134.35,-292.17C137.86,-284.13 142.15,-274.29 146.12,-265.22"/>
<polygon fill="black" stroke="black" points="149.31,-266.66 150.1,-256.09 142.89,-263.86 149.31,-266.66"/>
</g>
<!-- 32374789 -->
<g id="node10" class="node">
<title>32374789</title>
<ellipse fill="none" stroke="black" cx="27" cy="-164" rx="27" ry="18"/>
<text text-anchor="middle" x="27" y="-158.95" font-family="Times,serif" font-size="14.00">self</text>
</g>
<!-- 2110121908&#45;&gt;32374789 -->
<g id="edge9" class="edge">
<title>2110121908&#45;&gt;32374789</title>
<path fill="none" stroke="black" d="M73.49,-220.94C65.74,-211.62 55.63,-199.45 46.81,-188.85"/>
<polygon fill="black" stroke="black" points="49.54,-186.65 40.46,-181.2 44.16,-191.13 49.54,-186.65"/>
</g>
<!-- 1973538135 -->
<g id="node11" class="node">
<title>1973538135</title>
<ellipse fill="none" stroke="black" cx="99" cy="-164" rx="27" ry="18"/>
<text text-anchor="middle" x="99" y="-158.95" font-family="Times,serif" font-size="14.00">a</text>
</g>
<!-- 2110121908&#45;&gt;1973538135 -->
<g id="edge10" class="edge">
<title>2110121908&#45;&gt;1973538135</title>
<path fill="none" stroke="black" d="M89.15,-218.81C90.55,-211.14 92.25,-201.89 93.83,-193.24"/>
<polygon fill="black" stroke="black" points="97.25,-193.98 95.61,-183.52 90.37,-192.72 97.25,-193.98"/>
</g>
<!-- 1694819250 -->
<g id="node15" class="node">
<title>1694819250</title>
<ellipse fill="none" stroke="black" cx="376" cy="-383" rx="65.17" ry="18"/>
<text text-anchor="middle" x="376" y="-377.95" font-family="Times,serif" font-size="14.00">ProgramBlock</text>
</g>
<!-- 515132998&#45;&gt;1694819250 -->
<g id="edge14" class="edge">
<title>515132998&#45;&gt;1694819250</title>
<path fill="none" stroke="black" d="M376,-453.41C376,-441.76 376,-426.05 376,-412.52"/>
<polygon fill="black" stroke="black" points="379.5,-412.86 376,-402.86 372.5,-412.86 379.5,-412.86"/>
<text text-anchor="middle" x="390.62" y="-422.2" font-family="Times,serif" font-size="14.00">Body</text>
</g>
<!-- 1365202186 -->
<g id="node16" class="node">
<title>1365202186</title>
<ellipse fill="none" stroke="black" cx="332" cy="-310" rx="27" ry="18"/>
<text text-anchor="middle" x="332" y="-304.95" font-family="Times,serif" font-size="14.00">+=</text>
</g>
<!-- 1694819250&#45;&gt;1365202186 -->
<g id="edge15" class="edge">
<title>1694819250&#45;&gt;1365202186</title>
<path fill="none" stroke="black" d="M365.35,-364.81C360.12,-356.37 353.71,-346.03 347.91,-336.68"/>
<polygon fill="black" stroke="black" points="350.99,-335 342.75,-328.34 345.04,-338.69 350.99,-335"/>
</g>
<!-- 359023572 -->
<g id="node23" class="node">
<title>359023572</title>
<ellipse fill="#e4706f" stroke="black" cx="413" cy="-310" rx="36" ry="18"/>
<text text-anchor="middle" x="413" y="-304.95" font-family="Times,serif" font-size="14.00">Return</text>
</g>
<!-- 1694819250&#45;&gt;359023572 -->
<g id="edge22" class="edge">
<title>1694819250&#45;&gt;359023572</title>
<path fill="none" stroke="black" d="M384.96,-364.81C389.2,-356.67 394.36,-346.76 399.1,-337.67"/>
<polygon fill="black" stroke="black" points="402.16,-339.37 403.68,-328.88 395.96,-336.13 402.16,-339.37"/>
</g>
<!-- 1651191114 -->
<g id="node17" class="node">
<title>1651191114</title>
<ellipse fill="none" stroke="black" cx="265" cy="-237" rx="27" ry="18"/>
<text text-anchor="middle" x="265" y="-231.95" font-family="Times,serif" font-size="14.00">.</text>
</g>
<!-- 1365202186&#45;&gt;1651191114 -->
<g id="edge16" class="edge">
<title>1365202186&#45;&gt;1651191114</title>
<path fill="none" stroke="black" d="M318.12,-294.29C309.04,-284.67 297.01,-271.92 286.68,-260.98"/>
<polygon fill="black" stroke="black" points="289.31,-258.66 279.9,-253.79 284.22,-263.47 289.31,-258.66"/>
</g>
<!-- 932583850 -->
<g id="node20" class="node">
<title>932583850</title>
<ellipse fill="none" stroke="black" cx="337" cy="-237" rx="27" ry="18"/>
<text text-anchor="middle" x="337" y="-231.95" font-family="Times,serif" font-size="14.00">.</text>
</g>
<!-- 1365202186&#45;&gt;932583850 -->
<g id="edge19" class="edge">
<title>1365202186&#45;&gt;932583850</title>
<path fill="none" stroke="black" d="M333.21,-291.81C333.75,-284.14 334.4,-274.89 335.01,-266.24"/>
<polygon fill="black" stroke="black" points="338.48,-266.76 335.69,-256.54 331.5,-266.27 338.48,-266.76"/>
</g>
<!-- 1586600255 -->
<g id="node18" class="node">
<title>1586600255</title>
<ellipse fill="none" stroke="black" cx="193" cy="-164" rx="27" ry="18"/>
<text text-anchor="middle" x="193" y="-158.95" font-family="Times,serif" font-size="14.00">self</text>
</g>
<!-- 1651191114&#45;&gt;1586600255 -->
<g id="edge17" class="edge">
<title>1651191114&#45;&gt;1586600255</title>
<path fill="none" stroke="black" d="M250.43,-221.63C240.54,-211.88 227.26,-198.78 215.96,-187.64"/>
<polygon fill="black" stroke="black" points="218.45,-185.18 208.87,-180.65 213.54,-190.17 218.45,-185.18"/>
</g>
<!-- 474675244 -->
<g id="node19" class="node">
<title>474675244</title>
<ellipse fill="none" stroke="black" cx="265" cy="-164" rx="27" ry="18"/>
<text text-anchor="middle" x="265" y="-158.95" font-family="Times,serif" font-size="14.00">a</text>
</g>
<!-- 1651191114&#45;&gt;474675244 -->
<g id="edge18" class="edge">
<title>1651191114&#45;&gt;474675244</title>
<path fill="none" stroke="black" d="M265,-218.81C265,-211.23 265,-202.1 265,-193.54"/>
<polygon fill="black" stroke="black" points="268.5,-193.54 265,-183.54 261.5,-193.54 268.5,-193.54"/>
</g>
<!-- 212628335 -->
<g id="node21" class="node">
<title>212628335</title>
<ellipse fill="none" stroke="black" cx="337" cy="-164" rx="27" ry="18"/>
<text text-anchor="middle" x="337" y="-158.95" font-family="Times,serif" font-size="14.00">rhs</text>
</g>
<!-- 932583850&#45;&gt;212628335 -->
<g id="edge20" class="edge">
<title>932583850&#45;&gt;212628335</title>
<path fill="none" stroke="black" d="M337,-218.81C337,-211.23 337,-202.1 337,-193.54"/>
<polygon fill="black" stroke="black" points="340.5,-193.54 337,-183.54 333.5,-193.54 340.5,-193.54"/>
</g>
<!-- 1579572132 -->
<g id="node22" class="node">
<title>1579572132</title>
<ellipse fill="none" stroke="black" cx="409" cy="-164" rx="27" ry="18"/>
<text text-anchor="middle" x="409" y="-158.95" font-family="Times,serif" font-size="14.00">a</text>
</g>
<!-- 932583850&#45;&gt;1579572132 -->
<g id="edge21" class="edge">
<title>932583850&#45;&gt;1579572132</title>
<path fill="none" stroke="black" d="M351.57,-221.63C361.46,-211.88 374.74,-198.78 386.04,-187.64"/>
<polygon fill="black" stroke="black" points="388.46,-190.17 393.13,-180.65 383.55,-185.18 388.46,-190.17"/>
</g>
<!-- 305808283 -->
<g id="node24" class="node">
<title>305808283</title>
<ellipse fill="none" stroke="black" cx="413" cy="-237" rx="27" ry="18"/>
<text text-anchor="middle" x="413" y="-231.95" font-family="Times,serif" font-size="14.00">self</text>
</g>
<!-- 359023572&#45;&gt;305808283 -->
<g id="edge23" class="edge">
<title>359023572&#45;&gt;305808283</title>
<path fill="none" stroke="black" d="M413,-291.81C413,-284.23 413,-275.1 413,-266.54"/>
<polygon fill="black" stroke="black" points="416.5,-266.54 413,-256.54 409.5,-266.54 416.5,-266.54"/>
</g>
<!-- 292938459 -->
<g id="node26" class="node">
<title>292938459</title>
<ellipse fill="none" stroke="black" cx="547" cy="-383" rx="65.17" ry="18"/>
<text text-anchor="middle" x="547" y="-377.95" font-family="Times,serif" font-size="14.00">ProgramBlock</text>
</g>
<!-- 2111991224&#45;&gt;292938459 -->
<g id="edge25" class="edge">
<title>2111991224&#45;&gt;292938459</title>
<path fill="none" stroke="black" d="M560.64,-453.41C558.35,-441.76 555.26,-426.05 552.6,-412.52"/>
<polygon fill="black" stroke="black" points="556.06,-411.97 550.7,-402.84 549.2,-413.32 556.06,-411.97"/>
<text text-anchor="middle" x="572.62" y="-422.2" font-family="Times,serif" font-size="14.00">Body</text>
</g>
<!-- 917142466 -->
<g id="node27" class="node">
<title>917142466</title>
<ellipse fill="#e4706f" stroke="black" cx="547" cy="-310" rx="36" ry="18"/>
<text text-anchor="middle" x="547" y="-304.95" font-family="Times,serif" font-size="14.00">Return</text>
</g>
<!-- 292938459&#45;&gt;917142466 -->
<g id="edge26" class="edge">
<title>292938459&#45;&gt;917142466</title>
<path fill="none" stroke="black" d="M547,-364.81C547,-357.23 547,-348.1 547,-339.54"/>
<polygon fill="black" stroke="black" points="550.5,-339.54 547,-329.54 543.5,-339.54 550.5,-339.54"/>
</g>
<!-- 1993134103 -->
<g id="node28" class="node">
<title>1993134103</title>
<ellipse fill="none" stroke="black" cx="547" cy="-237" rx="27" ry="18"/>
<text text-anchor="middle" x="547" y="-231.95" font-family="Times,serif" font-size="14.00">+</text>
</g>
<!-- 917142466&#45;&gt;1993134103 -->
<g id="edge27" class="edge">
<title>917142466&#45;&gt;1993134103</title>
<path fill="none" stroke="black" d="M547,-291.81C547,-284.23 547,-275.1 547,-266.54"/>
<polygon fill="black" stroke="black" points="550.5,-266.54 547,-256.54 543.5,-266.54 550.5,-266.54"/>
</g>
<!-- 405662939 -->
<g id="node29" class="node">
<title>405662939</title>
<ellipse fill="none" stroke="black" cx="493" cy="-164" rx="27" ry="18"/>
<text text-anchor="middle" x="493" y="-158.95" font-family="Times,serif" font-size="14.00">+</text>
</g>
<!-- 1993134103&#45;&gt;405662939 -->
<g id="edge28" class="edge">
<title>1993134103&#45;&gt;405662939</title>
<path fill="none" stroke="black" d="M535.28,-220.59C528.35,-211.48 519.41,-199.72 511.54,-189.37"/>
<polygon fill="black" stroke="black" points="514.45,-187.42 505.61,-181.58 508.88,-191.66 514.45,-187.42"/>
</g>
<!-- 123961122 -->
<g id="node34" class="node">
<title>123961122</title>
<ellipse fill="none" stroke="black" cx="565" cy="-164" rx="27" ry="18"/>
<text text-anchor="middle" x="565" y="-158.95" font-family="Times,serif" font-size="14.00">&quot;)&quot;</text>
</g>
<!-- 1993134103&#45;&gt;123961122 -->
<g id="edge33" class="edge">
<title>1993134103&#45;&gt;123961122</title>
<path fill="none" stroke="black" d="M551.36,-218.81C553.33,-211.05 555.7,-201.68 557.91,-192.95"/>
<polygon fill="black" stroke="black" points="561.25,-194.05 560.31,-183.5 554.46,-192.33 561.25,-194.05"/>
</g>
<!-- 653305407 -->
<g id="node30" class="node">
<title>653305407</title>
<ellipse fill="none" stroke="black" cx="463" cy="-91" rx="47.77" ry="18"/>
<text text-anchor="middle" x="463" y="-85.95" font-family="Times,serif" font-size="14.00">&quot;Add(a=&quot;</text>
</g>
<!-- 405662939&#45;&gt;653305407 -->
<g id="edge29" class="edge">
<title>405662939&#45;&gt;653305407</title>
<path fill="none" stroke="black" d="M485.89,-146.17C482.54,-138.24 478.45,-128.58 474.67,-119.62"/>
<polygon fill="black" stroke="black" points="477.97,-118.44 470.86,-110.59 471.52,-121.17 477.97,-118.44"/>
</g>
<!-- 1130478920 -->
<g id="node31" class="node">
<title>1130478920</title>
<ellipse fill="none" stroke="black" cx="556" cy="-91" rx="27" ry="18"/>
<text text-anchor="middle" x="556" y="-85.95" font-family="Times,serif" font-size="14.00">.</text>
</g>
<!-- 405662939&#45;&gt;1130478920 -->
<g id="edge30" class="edge">
<title>405662939&#45;&gt;1130478920</title>
<path fill="none" stroke="black" d="M506.36,-147.94C514.71,-138.53 525.65,-126.21 535.13,-115.52"/>
<polygon fill="black" stroke="black" points="537.63,-117.97 541.65,-108.17 532.4,-113.32 537.63,-117.97"/>
</g>
<!-- 1404928347 -->
<g id="node32" class="node">
<title>1404928347</title>
<ellipse fill="none" stroke="black" cx="520" cy="-18" rx="27" ry="18"/>
<text text-anchor="middle" x="520" y="-12.95" font-family="Times,serif" font-size="14.00">self</text>
</g>
<!-- 1130478920&#45;&gt;1404928347 -->
<g id="edge31" class="edge">
<title>1130478920&#45;&gt;1404928347</title>
<path fill="none" stroke="black" d="M547.65,-73.53C543.42,-65.2 538.19,-54.88 533.42,-45.47"/>
<polygon fill="black" stroke="black" points="536.63,-44.06 528.99,-36.73 530.39,-47.23 536.63,-44.06"/>
</g>
<!-- 604107971 -->
<g id="node33" class="node">
<title>604107971</title>
<ellipse fill="none" stroke="black" cx="592" cy="-18" rx="27" ry="18"/>
<text text-anchor="middle" x="592" y="-12.95" font-family="Times,serif" font-size="14.00">a</text>
</g>
<!-- 1130478920&#45;&gt;604107971 -->
<g id="edge32" class="edge">
<title>1130478920&#45;&gt;604107971</title>
<path fill="none" stroke="black" d="M564.35,-73.53C568.58,-65.2 573.81,-54.88 578.58,-45.47"/>
<polygon fill="black" stroke="black" points="581.61,-47.23 583.01,-36.73 575.37,-44.06 581.61,-47.23"/>
</g>
<!-- 1982791261 -->
<g id="node36" class="node">
<title>1982791261</title>
<ellipse fill="none" stroke="black" cx="657" cy="-560" rx="27" ry="18"/>
<text text-anchor="middle" x="657" y="-554.95" font-family="Times,serif" font-size="14.00">a</text>
</g>
<!-- 1227229563&#45;&gt;1982791261 -->
<g id="edge35" class="edge">
<title>1227229563&#45;&gt;1982791261</title>
<path fill="none" stroke="black" d="M716.46,-632.43C705.48,-619.24 689.34,-599.86 676.65,-584.61"/>
<polygon fill="black" stroke="black" points="679.7,-582.79 670.61,-577.35 674.32,-587.27 679.7,-582.79"/>
</g>
<!-- 1562557367 -->
<g id="node37" class="node">
<title>1562557367</title>
<ellipse fill="#f1cd77" stroke="black" cx="729" cy="-560" rx="27" ry="18"/>
<text text-anchor="middle" x="729" y="-554.95" font-family="Times,serif" font-size="14.00">Call</text>
</g>
<!-- 1227229563&#45;&gt;1562557367 -->
<g id="edge36" class="edge">
<title>1227229563&#45;&gt;1562557367</title>
<path fill="none" stroke="black" d="M729,-630.41C729,-618.76 729,-603.05 729,-589.52"/>
<polygon fill="black" stroke="black" points="732.5,-589.86 729,-579.86 725.5,-589.86 732.5,-589.86"/>
</g>
<!-- 1101288798 -->
<g id="node38" class="node">
<title>1101288798</title>
<ellipse fill="#8acef7" stroke="black" cx="729" cy="-471.5" rx="27" ry="18"/>
<text text-anchor="middle" x="729" y="-466.45" font-family="Times,serif" font-size="14.00">Add</text>
</g>
<!-- 1562557367&#45;&gt;1101288798 -->
<g id="edge37" class="edge">
<title>1562557367&#45;&gt;1101288798</title>
<path fill="none" stroke="black" d="M729,-541.91C729,-530.26 729,-514.55 729,-501.02"/>
<polygon fill="black" stroke="black" points="732.5,-501.36 729,-491.36 725.5,-501.36 732.5,-501.36"/>
<text text-anchor="middle" x="746.25" y="-510.7" font-family="Times,serif" font-size="14.00">Callee</text>
</g>
<!-- 942731712 -->
<g id="node39" class="node">
<title>942731712</title>
<ellipse fill="none" stroke="black" cx="657" cy="-383" rx="27" ry="18"/>
<text text-anchor="middle" x="657" y="-377.95" font-family="Times,serif" font-size="14.00">(</text>
</g>
<!-- 1101288798&#45;&gt;942731712 -->
<g id="edge38" class="edge">
<title>1101288798&#45;&gt;942731712</title>
<path fill="none" stroke="black" d="M716.46,-455.43C705.48,-442.24 689.34,-422.86 676.65,-407.61"/>
<polygon fill="black" stroke="black" points="679.7,-405.79 670.61,-400.35 674.32,-410.27 679.7,-405.79"/>
</g>
<!-- 971848845 -->
<g id="node40" class="node">
<title>971848845</title>
<ellipse fill="none" stroke="black" cx="729" cy="-383" rx="27" ry="18"/>
<text text-anchor="middle" x="729" y="-377.95" font-family="Times,serif" font-size="14.00">1</text>
</g>
<!-- 1101288798&#45;&gt;971848845 -->
<g id="edge39" class="edge">
<title>1101288798&#45;&gt;971848845</title>
<path fill="none" stroke="black" d="M729,-453.41C729,-441.76 729,-426.05 729,-412.52"/>
<polygon fill="black" stroke="black" points="732.5,-412.86 729,-402.86 725.5,-412.86 732.5,-412.86"/>
</g>
<!-- 1910163204 -->
<g id="node41" class="node">
<title>1910163204</title>
<ellipse fill="none" stroke="black" cx="801" cy="-383" rx="27" ry="18"/>
<text text-anchor="middle" x="801" y="-377.95" font-family="Times,serif" font-size="14.00">)</text>
</g>
<!-- 1101288798&#45;&gt;1910163204 -->
<g id="edge40" class="edge">
<title>1101288798&#45;&gt;1910163204</title>
<path fill="none" stroke="black" d="M741.54,-455.43C752.52,-442.24 768.66,-422.86 781.35,-407.61"/>
<polygon fill="black" stroke="black" points="783.68,-410.27 787.39,-400.35 778.3,-405.79 783.68,-410.27"/>
</g>
<!-- 758529971 -->
<g id="node43" class="node">
<title>758529971</title>
<ellipse fill="none" stroke="black" cx="801" cy="-560" rx="27" ry="18"/>
<text text-anchor="middle" x="801" y="-554.95" font-family="Times,serif" font-size="14.00">b</text>
</g>
<!-- 305623748&#45;&gt;758529971 -->
<g id="edge42" class="edge">
<title>305623748&#45;&gt;758529971</title>
<path fill="none" stroke="black" d="M820.26,-630.41C816.97,-618.56 812.52,-602.52 808.73,-588.84"/>
<polygon fill="black" stroke="black" points="812.18,-588.21 806.14,-579.51 805.44,-590.08 812.18,-588.21"/>
</g>
<!-- 2104457164 -->
<g id="node44" class="node">
<title>2104457164</title>
<ellipse fill="#f1cd77" stroke="black" cx="873" cy="-560" rx="27" ry="18"/>
<text text-anchor="middle" x="873" y="-554.95" font-family="Times,serif" font-size="14.00">Call</text>
</g>
<!-- 305623748&#45;&gt;2104457164 -->
<g id="edge43" class="edge">
<title>305623748&#45;&gt;2104457164</title>
<path fill="none" stroke="black" d="M834.03,-631.23C840.93,-618.79 850.59,-601.38 858.57,-587.01"/>
<polygon fill="black" stroke="black" points="861.49,-588.96 863.28,-578.52 855.37,-585.57 861.49,-588.96"/>
</g>
<!-- 1521118594 -->
<g id="node45" class="node">
<title>1521118594</title>
<ellipse fill="#8acef7" stroke="black" cx="873" cy="-471.5" rx="27" ry="18"/>
<text text-anchor="middle" x="873" y="-466.45" font-family="Times,serif" font-size="14.00">Add</text>
</g>
<!-- 2104457164&#45;&gt;1521118594 -->
<g id="edge44" class="edge">
<title>2104457164&#45;&gt;1521118594</title>
<path fill="none" stroke="black" d="M873,-541.91C873,-530.26 873,-514.55 873,-501.02"/>
<polygon fill="black" stroke="black" points="876.5,-501.36 873,-491.36 869.5,-501.36 876.5,-501.36"/>
<text text-anchor="middle" x="890.25" y="-510.7" font-family="Times,serif" font-size="14.00">Callee</text>
</g>
<!-- 1940030785 -->
<g id="node46" class="node">
<title>1940030785</title>
<ellipse fill="none" stroke="black" cx="873" cy="-383" rx="27" ry="18"/>
<text text-anchor="middle" x="873" y="-377.95" font-family="Times,serif" font-size="14.00">(</text>
</g>
<!-- 1521118594&#45;&gt;1940030785 -->
<g id="edge45" class="edge">
<title>1521118594&#45;&gt;1940030785</title>
<path fill="none" stroke="black" d="M873,-453.41C873,-441.76 873,-426.05 873,-412.52"/>
<polygon fill="black" stroke="black" points="876.5,-412.86 873,-402.86 869.5,-412.86 876.5,-412.86"/>
</g>
<!-- 1869997857 -->
<g id="node47" class="node">
<title>1869997857</title>
<ellipse fill="none" stroke="black" cx="945" cy="-383" rx="27" ry="18"/>
<text text-anchor="middle" x="945" y="-377.95" font-family="Times,serif" font-size="14.00">2</text>
</g>
<!-- 1521118594&#45;&gt;1869997857 -->
<g id="edge46" class="edge">
<title>1521118594&#45;&gt;1869997857</title>
<path fill="none" stroke="black" d="M885.54,-455.43C896.52,-442.24 912.66,-422.86 925.35,-407.61"/>
<polygon fill="black" stroke="black" points="927.68,-410.27 931.39,-400.35 922.3,-405.79 927.68,-410.27"/>
</g>
<!-- 1763847188 -->
<g id="node48" class="node">
<title>1763847188</title>
<ellipse fill="none" stroke="black" cx="1017" cy="-383" rx="27" ry="18"/>
<text text-anchor="middle" x="1017" y="-377.95" font-family="Times,serif" font-size="14.00">)</text>
</g>
<!-- 1521118594&#45;&gt;1763847188 -->
<g id="edge47" class="edge">
<title>1521118594&#45;&gt;1763847188</title>
<path fill="none" stroke="black" d="M892.72,-458.65C917.28,-443.9 959.45,-418.57 987.77,-401.56"/>
<polygon fill="black" stroke="black" points="989.45,-404.63 996.22,-396.48 985.85,-398.63 989.45,-404.63"/>
</g>
<!-- 125993742 -->
<g id="node50" class="node">
<title>125993742</title>
<ellipse fill="none" stroke="black" cx="945" cy="-560" rx="27" ry="18"/>
<text text-anchor="middle" x="945" y="-554.95" font-family="Times,serif" font-size="14.00">c</text>
</g>
<!-- 1617791695&#45;&gt;125993742 -->
<g id="edge49" class="edge">
<title>1617791695&#45;&gt;125993742</title>
<path fill="none" stroke="black" d="M945,-630.41C945,-618.76 945,-603.05 945,-589.52"/>
<polygon fill="black" stroke="black" points="948.5,-589.86 945,-579.86 941.5,-589.86 948.5,-589.86"/>
</g>
<!-- 1192108080 -->
<g id="node51" class="node">
<title>1192108080</title>
<ellipse fill="none" stroke="black" cx="1017" cy="-560" rx="27" ry="18"/>
<text text-anchor="middle" x="1017" y="-554.95" font-family="Times,serif" font-size="14.00">+</text>
</g>
<!-- 1617791695&#45;&gt;1192108080 -->
<g id="edge50" class="edge">
<title>1617791695&#45;&gt;1192108080</title>
<path fill="none" stroke="black" d="M957.54,-632.43C968.52,-619.24 984.66,-599.86 997.35,-584.61"/>
<polygon fill="black" stroke="black" points="999.68,-587.27 1003.39,-577.35 994.3,-582.79 999.68,-587.27"/>
</g>
<!-- 1068824137 -->
<g id="node52" class="node">
<title>1068824137</title>
<ellipse fill="none" stroke="black" cx="945" cy="-471.5" rx="27" ry="18"/>
<text text-anchor="middle" x="945" y="-466.45" font-family="Times,serif" font-size="14.00">a</text>
</g>
<!-- 1192108080&#45;&gt;1068824137 -->
<g id="edge51" class="edge">
<title>1192108080&#45;&gt;1068824137</title>
<path fill="none" stroke="black" d="M1004.46,-543.93C993.48,-530.74 977.34,-511.36 964.65,-496.11"/>
<polygon fill="black" stroke="black" points="967.7,-494.29 958.61,-488.85 962.32,-498.77 967.7,-494.29"/>
</g>
<!-- 864237698 -->
<g id="node53" class="node">
<title>864237698</title>
<ellipse fill="none" stroke="black" cx="1017" cy="-471.5" rx="27" ry="18"/>
<text text-anchor="middle" x="1017" y="-466.45" font-family="Times,serif" font-size="14.00">b</text>
</g>
<!-- 1192108080&#45;&gt;864237698 -->
<g id="edge52" class="edge">
<title>1192108080&#45;&gt;864237698</title>
<path fill="none" stroke="black" d="M1017,-541.91C1017,-530.26 1017,-514.55 1017,-501.02"/>
<polygon fill="black" stroke="black" points="1020.5,-501.36 1017,-491.36 1013.5,-501.36 1020.5,-501.36"/>
</g>
<!-- 380894366 -->
<g id="node55" class="node">
<title>380894366</title>
<ellipse fill="#8acef7" stroke="black" cx="1126" cy="-560" rx="28.32" ry="18"/>
<text text-anchor="middle" x="1126" y="-554.95" font-family="Times,serif" font-size="14.00">print</text>
</g>
<!-- 537548559&#45;&gt;380894366 -->
<g id="edge54" class="edge">
<title>537548559&#45;&gt;380894366</title>
<path fill="none" stroke="black" d="M1041.23,-633.6C1057.33,-619.81 1082.23,-598.48 1100.89,-582.51"/>
<polygon fill="black" stroke="black" points="1103.01,-585.3 1108.33,-576.14 1098.46,-579.98 1103.01,-585.3"/>
<text text-anchor="middle" x="1102.25" y="-599.2" font-family="Times,serif" font-size="14.00">Callee</text>
</g>
<!-- 237852351 -->
<g id="node56" class="node">
<title>237852351</title>
<ellipse fill="none" stroke="black" cx="1089" cy="-471.5" rx="27" ry="18"/>
<text text-anchor="middle" x="1089" y="-466.45" font-family="Times,serif" font-size="14.00">(</text>
</g>
<!-- 380894366&#45;&gt;237852351 -->
<g id="edge55" class="edge">
<title>380894366&#45;&gt;237852351</title>
<path fill="none" stroke="black" d="M1118.87,-542.32C1113.7,-530.24 1106.59,-513.63 1100.61,-499.64"/>
<polygon fill="black" stroke="black" points="1103.86,-498.34 1096.71,-490.52 1097.42,-501.09 1103.86,-498.34"/>
</g>
<!-- 608188624 -->
<g id="node57" class="node">
<title>608188624</title>
<ellipse fill="none" stroke="black" cx="1161" cy="-471.5" rx="27" ry="18"/>
<text text-anchor="middle" x="1161" y="-466.45" font-family="Times,serif" font-size="14.00">c</text>
</g>
<!-- 380894366&#45;&gt;608188624 -->
<g id="edge56" class="edge">
<title>380894366&#45;&gt;608188624</title>
<path fill="none" stroke="black" d="M1132.75,-542.32C1137.64,-530.24 1144.36,-513.63 1150.02,-499.64"/>
<polygon fill="black" stroke="black" points="1153.2,-501.11 1153.7,-490.53 1146.71,-498.49 1153.2,-501.11"/>
</g>
<!-- 1451270520 -->
<g id="node58" class="node">
<title>1451270520</title>
<ellipse fill="none" stroke="black" cx="1233" cy="-471.5" rx="27" ry="18"/>
<text text-anchor="middle" x="1233" y="-466.45" font-family="Times,serif" font-size="14.00">)</text>
</g>
<!-- 380894366&#45;&gt;1451270520 -->
<g id="edge57" class="edge">
<title>380894366&#45;&gt;1451270520</title>
<path fill="none" stroke="black" d="M1142.72,-545.48C1160.07,-531.46 1187.43,-509.34 1207.49,-493.12"/>
<polygon fill="black" stroke="black" points="1209.65,-495.88 1215.22,-486.87 1205.24,-490.44 1209.65,-495.88"/>
</g>
</g>
</svg>
